# Blender v2.79 (sub 0) OBJ File: ''
# www.blender.org
o Plane
v -0.500000 -0.528482 0.500000
v 0.068281 -0.528482 0.500000
v 0.265617 0.496728 -0.524722
v 2.951013 -0.456382 0.427934
v 1.003702 -0.262873 0.234517
v 2.047437 0.290243 -0.318335
v -0.500000 -0.473308 0.555200
v 0.068281 -0.473308 0.555200
v 0.265617 0.551902 -0.469523
v 2.951013 -0.401208 0.483134
v 1.003702 -0.207699 0.289717
v 2.047437 0.345416 -0.263136
v -0.500000 -0.528482 1.500000
v 0.068281 -0.528482 1.500000
v 0.265617 0.496240 2.525210
v 2.951013 -0.456416 1.572100
v 1.003702 -0.262999 1.765609
v 2.047437 0.289853 2.318725
v -0.500000 -0.583682 1.555173
v 0.068281 -0.583682 1.555173
v 0.265617 0.441040 2.580384
v 2.951013 -0.511616 1.627273
v 1.003702 -0.318199 1.820783
v 2.047437 0.234654 2.373898
vt 2.355069 -0.382982
vt 1.409234 1.264028
vt 0.598601 -0.009725
vt 1.697073 -0.406250
vt -1.551181 -0.240759
vt -0.893185 -0.264028
vt 0.205288 0.132497
vt -0.605344 1.406250
vt 0.437499 -1.102836
vt 0.437499 0.013571
vt 0.227360 0.013571
vt 0.227359 -1.102836
vt 0.437499 2.240033
vt 0.227360 2.240034
vt 0.857780 -1.759966
vt 0.857780 0.141680
vt 0.647640 0.141680
vt 0.647640 -1.759966
vt 0.647639 -1.759966
vt 0.647639 -0.245897
vt 0.437500 -0.245896
vt 0.437499 -1.759966
vt 0.647640 1.721499
vt 0.437500 1.721499
vt 0.437499 -1.759966
vt 0.227359 -1.759966
vt 2.448819 -0.264027
vt 1.445819 0.995259
vt -0.641930 0.853037
vt -1.644931 -0.406249
vt 2.355069 -0.382982
vt 1.409234 1.264028
vt 0.598601 -0.009725
vt 1.697073 -0.406250
vt -1.551181 -0.240759
vt -0.893185 -0.264028
vt 0.205288 0.132497
vt -0.605344 1.406250
vt 0.437499 -1.102836
vt 0.437499 0.013571
vt 0.227360 0.013571
vt 0.227359 -1.102836
vt 0.437499 2.240033
vt 0.227360 2.240034
vt 0.857780 -1.759966
vt 0.857780 0.141680
vt 0.647640 0.141680
vt 0.647640 -1.759966
vt 0.647639 -1.759966
vt 0.647639 -0.245897
vt 0.437500 -0.245896
vt 0.437499 -1.759966
vt 0.647640 1.721499
vt 0.437500 1.721499
vt 0.437499 -1.759966
vt 0.227359 -1.759966
vt 2.448819 -0.264027
vt 1.445819 0.995259
vt -0.641930 0.853037
vt -1.644931 -0.406249
vn 0.0000 -0.7069 -0.7073
vn -0.0000 0.7069 0.7073
vn 0.3726 -0.6564 0.6560
vn -0.1391 -0.7004 0.7001
vn -0.8842 0.3303 -0.3302
vn 0.7597 0.4599 -0.4597
vn 0.1617 0.6980 -0.6976
vn 0.0000 -0.7073 0.7069
vn -0.0000 0.7073 -0.7069
vn 0.3726 -0.6560 -0.6564
vn -0.1391 -0.7001 -0.7004
vn -0.8842 0.3302 0.3303
vn 0.7597 0.4597 0.4599
vn 0.1617 0.6976 0.6980
s off
f 1/1/1 3/2/1 5/3/1 2/4/1
f 7/5/2 8/6/2 11/7/2 9/8/2
f 2/9/3 5/10/3 11/11/3 8/12/3
f 5/10/4 4/13/4 10/14/4 11/11/4
f 3/15/5 1/16/5 7/17/5 9/18/5
f 4/19/6 6/20/6 12/21/6 10/22/6
f 6/20/7 3/23/7 9/24/7 12/21/7
f 1/25/8 2/9/8 8/12/8 7/26/8
f 9/8/2 11/7/2 10/27/2 12/28/2
f 5/3/1 3/2/1 6/29/1 4/30/1
f 13/31/9 15/32/9 17/33/9 14/34/9
f 19/35/8 20/36/8 23/37/8 21/38/8
f 14/39/10 17/40/10 23/41/10 20/42/10
f 17/40/11 16/43/11 22/44/11 23/41/11
f 15/45/12 13/46/12 19/47/12 21/48/12
f 16/49/13 18/50/13 24/51/13 22/52/13
f 18/50/14 15/53/14 21/54/14 24/51/14
f 13/55/1 14/39/1 20/42/1 19/56/1
f 21/38/8 23/37/8 22/57/8 24/58/8
f 17/33/9 15/32/9 18/59/9 16/60/9
